# xmcd CD database file
#
# Track frame offsets:
#	150
#	16365
#	44711
#	62009
#	77999
#	104637
#	125154
#	141081
#	159282
#	188760
#
# Disc length: 2709 seconds
#
# Revision: 5
# Processed by: cddbd v1.4PL0 Copyright (c) Steve Scherf et al.
# Submitted via: CDex 1.50
#
DISCID=8d0a930a
DTITLE=伍佰 - 愛情的盡頭
DYEAR=1900
DGENRE=
TTITLE0=夏夜晚風
TTITLE1=愛情的盡頭
TTITLE2=親愛的,你喝醉了
TTITLE3=變
TTITLE4=七彩燈光
TTITLE5=LAST DANCE
TTITLE6=青春
TTITLE7=人生一場夢
TTITLE8=挪威的森林
TTITLE9=隨風而去
EXTD=
EXTT0=
EXTT1=
EXTT2=
EXTT3=
EXTT4=
EXTT5=
EXTT6=
EXTT7=
EXTT8=
EXTT9=
PLAYORDER=
